<svg id="Capa_1" enable-background="new 0 0 510 510" height="512" viewBox="0 0 510 510" width="512" xmlns="http://www.w3.org/2000/svg"><g id="XMLID_862_"><path id="XMLID_1023_" d="m157.5 8.194c-30.892 14.218-52.5 45.488-52.5 81.806v105l26.25 10 26.25-10 9-83z" fill="#ff4a4a"/><path id="XMLID_1022_" d="m210 195c0-10.822 0-184.178 0-195-5.246 0-9.754 0-15 0-13.027 0-25.758 2.79-37.5 8.194v186.806l26.25 10z" fill="#d10763"/><path id="XMLID_962_" d="m105 195v45l26.25 11.5 26.25-11.5 9-22.5-9-22.5c-17.496 0-35.004 0-52.5 0z" fill="#d10763"/><path id="XMLID_904_" d="m210 195c-17.496 0-35.004 0-52.5 0v45l26.25 11.5 26.25-11.5c0-14.981 0-30.019 0-45z" fill="#8c2a53"/><path id="XMLID_1025_" d="m157.5 300-41.25-10-41.25 10v30l41.25 10.5 41.25-10.5 9-15z" fill="#ffa951"/><path id="XMLID_1027_" d="m157.5 420-41.25-9.5-41.25 9.5v30l41.25 9 41.25-9 9-15z" fill="#ffa951"/><path id="XMLID_1013_" d="m352.5 300-41.25-15-41.25 15v180l41.25 15 41.25-15 13-90z" fill="#405580"/><path id="XMLID_1015_" d="m352.5 0c-9.976 0-72.459 0-82.5 0v210l41.25 13.25 41.25-13.25 13-105z" fill="#405580"/><path id="XMLID_1024_" d="m157.5 330 41.25 10.5 41.25-10.5c0-10.492 0-19.508 0-30l-41.25-10-41.25 10z" fill="#ff8c59"/><path id="XMLID_1026_" d="m157.5 450 41.25 9 41.25-9c0-10.492 0-19.508 0-30l-41.25-9.5-41.25 9.5z" fill="#ff8c59"/><path id="XMLID_1021_" d="m157.5 330c-9.976 0-72.459 0-82.5 0v90h82.5l12-45z" fill="#ffd845"/><path id="XMLID_1020_" d="m157.5 420h82.5c0-10.889 0-79.04 0-90-9.976 0-72.459 0-82.5 0z" fill="#ffa951"/><path id="XMLID_998_" d="m75 450v60h82.5l9-30-9-30c-9.976 0-72.459 0-82.5 0z" fill="#405580"/><path id="XMLID_1008_" d="m157.5 510h82.5c0-20.57 0-39.43 0-60-9.976 0-72.459 0-82.5 0z" fill="#30446c"/><path id="XMLID_1009_" d="m157.5 240c-16.814 0-64.693 0-82.5 0v60h82.5l12-30z" fill="#405580"/><g fill="#30446c"><path id="XMLID_1010_" d="m157.5 240v60h82.5c0-7.259 0-52.693 0-60-36.567 0-61.629 0-82.5 0z"/><path id="XMLID_1012_" d="m352.5 480 41.25 15 41.25-15c0-42.446 0-139.834 0-180l-41.25-10-41.25 10z"/><path id="XMLID_1014_" d="m352.5 0v210l41.25 15 41.25-15c0-70.101 0-140.134 0-210-9.976 0-72.459 0-82.5 0z"/></g><path id="XMLID_1017_" d="m352.5 210c-9.976 0-72.459 0-82.5 0v90h82.5l13-45z" fill="#ffd845"/><path id="XMLID_1016_" d="m352.5 300h82.5c0-10.889 0-79.04 0-90-9.976 0-72.459 0-82.5 0z" fill="#ffa951"/><path id="XMLID_1018_" d="m352.5 510h82.5c0-10.492 0-19.508 0-30-9.976 0-72.459 0-82.5 0z" fill="#ffa951"/><path id="XMLID_1019_" d="m270 480v30h82.5c0-10.492 0-19.508 0-30-9.976 0-72.459 0-82.5 0z" fill="#ffd845"/></g></svg>