<svg width="580" height="400" xmlns="http://www.w3.org/2000/svg">
 <!-- Created with SVG Editor - http://github.com/mzalive/SVG Editor/ -->

 <g>
  <title>background</title>
  <rect fill="#fff" id="canvas_background" height="402" width="582" y="-1" x="-1"/>
  <g display="none" overflow="visible" y="0" x="0" height="100%" width="100%" id="canvasGrid">
   <rect fill="url(#gridpattern)" stroke-width="0" y="0" x="0" height="100%" width="100%"/>
  </g>
 </g>
 <g>
  <title>Layer 1</title>
  <g id="svg_8">
   <g transform="matrix(7.404322131900699,0,0,7.404322131900699,0,0) " id="svg_4">
    <g id="svg_5">
     <path fill="#c7b299" id="svg_6" d="m62.500438,22.065965l-14.266,14.268l-32.868,14.478l14.477,-32.872l14.268,-14.264a1.589,1.589 0 1 1 2.248,2.249l-13.844,13.846l-8.576,19.466l2.999,2.999l19.467,-8.573l13.847,-13.844a1.587,1.587 0 0 1 2.248,0c0.621,0.62 0.621,1.63 0,2.247zm-20.173,6.5l13.332,-13.332a1.585,1.585 0 0 1 2.25,0c0.623,0.62 0.623,1.625 0,2.249l-13.332,13.332a1.594,1.594 0 0 1 -2.25,0a1.593,1.593 0 0 1 0,-2.25l0,0.001zm-3.48,-3.482l13.333,-13.332a1.59,1.59 0 1 1 2.25,2.25l-13.333,13.332a1.592,1.592 0 0 1 -2.25,-2.25zm-3.48,-3.482l13.332,-13.33a1.586,1.586 0 0 1 2.25,0c0.622,0.62 0.622,1.625 0,2.25l-13.333,13.33c-0.31,0.31 -0.719,0.465 -1.125,0.465s-0.814,-0.154 -1.125,-0.466a1.591,1.591 0 0 1 0,-2.249l0.001,0z"/>
     <path id="svg_7" d="m62.500438,22.065965l-14.266,14.268l-32.868,14.478l14.477,-32.872l14.268,-14.264a1.589,1.589 0 1 1 2.248,2.249l-13.844,13.846l-8.576,19.466l2.999,2.999l19.467,-8.573l13.847,-13.844a1.587,1.587 0 0 1 2.248,0c0.621,0.62 0.621,1.63 0,2.247zm-20.173,6.5l13.332,-13.332a1.585,1.585 0 0 1 2.25,0c0.623,0.62 0.623,1.625 0,2.249l-13.332,13.332a1.594,1.594 0 0 1 -2.25,0a1.593,1.593 0 0 1 0,-2.25l0,0.001zm-3.48,-3.482l13.333,-13.332a1.59,1.59 0 1 1 2.25,2.25l-13.333,13.332a1.592,1.592 0 0 1 -2.25,-2.25zm-3.48,-3.482l13.332,-13.33a1.586,1.586 0 0 1 2.25,0c0.622,0.62 0.622,1.625 0,2.25l-13.333,13.33c-0.31,0.31 -0.719,0.465 -1.125,0.465s-0.814,-0.154 -1.125,-0.466a1.591,1.591 0 0 1 0,-2.249l0.001,0z" fill="#c7b299"/>
    </g>
   </g>
  </g>
 </g>
</svg>